HIERARCHY
ROOT Hips
{
	OFFSET 0.000000 0.000000 0.000000
	CHANNELS 6 Xposition Yposition Zposition Xrotation Yrotation Zrotation
	JOINT LeftUpLeg_virtual
	{
		OFFSET 0.000000 0.000000 0.000000
		CHANNELS 3 Xrotation Yrotation Zrotation
		JOINT LeftUpLeg
		{
			OFFSET 15.427100 -6.655098 0.678600
			CHANNELS 3 Xrotation Yrotation Zrotation
			JOINT LeftLeg
			{
				OFFSET 4.081073 -39.591068 13.024000
				CHANNELS 3 Xrotation Yrotation Zrotation
				JOINT LeftFoot
				{
					OFFSET -4.081074 -37.707932 -15.979700
					CHANNELS 3 Xrotation Yrotation Zrotation
					JOINT LeftToeBase
					{
						OFFSET 5.346399 -15.068900 20.645000
						CHANNELS 3 Xrotation Yrotation Zrotation
						JOINT LeftToe_End
						{
							OFFSET 2.754700 0.931300 11.300900
							CHANNELS 3 Xrotation Yrotation Zrotation
							End Site
							{
								OFFSET 0 0 0
							}
						}
					}
				}
			}
		}
	}
	JOINT RightUpLeg_virtual
	{
		OFFSET 0.000000 0.000000 0.000000
		CHANNELS 3 Xrotation Yrotation Zrotation
		JOINT RightUpLeg
		{
			OFFSET -15.569500 -6.655098 0.678600
			CHANNELS 3 Xrotation Yrotation Zrotation
			JOINT RightLeg
			{
				OFFSET -4.081825 -39.591045 13.023800
				CHANNELS 3 Xrotation Yrotation Zrotation
				JOINT RightFoot
				{
					OFFSET 4.081824 -37.707954 -15.979600
					CHANNELS 3 Xrotation Yrotation Zrotation
					JOINT RightToeBase
					{
						OFFSET -5.346400 -15.068900 20.645000
						CHANNELS 3 Xrotation Yrotation Zrotation
						JOINT RightToe_End
						{
							OFFSET -2.754700 0.931300 11.300900
							CHANNELS 3 Xrotation Yrotation Zrotation
							End Site
							{
								OFFSET 0 0 0
							}
						}
					}
				}
			}
		}
	}
	JOINT Spine_virtual
	{
		OFFSET 0.000000 0.000000 0.000000
		CHANNELS 3 Xrotation Yrotation Zrotation
		JOINT Spine
		{
			OFFSET -0.279200 12.230698 -2.892100
			CHANNELS 3 Xrotation Yrotation Zrotation
			JOINT Spine1
			{
				OFFSET -0.232667 10.192268 -1.242267
				CHANNELS 3 Xrotation Yrotation Zrotation
				JOINT Spine1_split
				{
					OFFSET -0.232667 10.192268 -1.242267
					CHANNELS 3 Xrotation Yrotation Zrotation
					JOINT Spine2
					{
						OFFSET -0.232667 10.192268 -1.242267
						CHANNELS 3 Xrotation Yrotation Zrotation
						JOINT Neck_virtual
						{
							OFFSET 0.000000 0.000000 0.000000
							CHANNELS 3 Xrotation Yrotation Zrotation
							JOINT Neck
							{
								OFFSET -0.418800 17.814194 8.416900
								CHANNELS 3 Xrotation Yrotation Zrotation
								JOINT Head
								{
									OFFSET 0.000000 7.031097 3.806800
									CHANNELS 3 Xrotation Yrotation Zrotation
									JOINT HeadTop_End
									{
										OFFSET 0.000000 24.646606 12.978600
										CHANNELS 3 Xrotation Yrotation Zrotation
										End Site
										{
											OFFSET 0 0 0
										}
									}
								}
							}
						}
						JOINT LeftShoulder_virtual
						{
							OFFSET 0.000000 0.000000 0.000000
							CHANNELS 3 Xrotation Yrotation Zrotation
							JOINT LeftShoulder
							{
								OFFSET 8.476499 7.247704 -3.868750
								CHANNELS 3 Xrotation Yrotation Zrotation
								JOINT LeftShoulder_split
								{
									OFFSET 8.476499 7.247704 -3.868750
									CHANNELS 3 Xrotation Yrotation Zrotation
									JOINT LeftArm
									{
										OFFSET 9.308998 -2.777710 0.208600
										CHANNELS 3 Xrotation Yrotation Zrotation
										JOINT LeftForeArm
										{
											OFFSET 29.972298 0.000000 0.000000
											CHANNELS 3 Xrotation Yrotation Zrotation
											JOINT LeftHand
											{
												OFFSET 26.026505 0.000000 0.000000
												CHANNELS 3 Xrotation Yrotation Zrotation
												End Site
												{
													OFFSET 0 0 0
												}
											}
										}
									}
								}
							}
						}
						JOINT RightShoulder_virtual
						{
							OFFSET 0.000000 0.000000 0.000000
							CHANNELS 3 Xrotation Yrotation Zrotation
							JOINT RightShoulder
							{
								OFFSET -7.570500 7.247704 -3.868750
								CHANNELS 3 Xrotation Yrotation Zrotation
								JOINT RightShoulder_split
								{
									OFFSET -7.570500 7.247704 -3.868750
									CHANNELS 3 Xrotation Yrotation Zrotation
									JOINT RightArm
									{
										OFFSET -9.308998 -2.777710 0.208500
										CHANNELS 3 Xrotation Yrotation Zrotation
										JOINT RightForeArm
										{
											OFFSET -29.972300 0.000000 0.000000
											CHANNELS 3 Xrotation Yrotation Zrotation
											JOINT RightHand
											{
												OFFSET -26.026505 0.000000 0.000000
												CHANNELS 3 Xrotation Yrotation Zrotation
												End Site
												{
													OFFSET 0 0 0
												}
											}
										}
									}
								}
							}
						}
					}
				}
			}
		}
	}
}
MOTION
Frames: 5
Frame Time: 0.03333333
2.724371 95.263336 -4.562000 0.000000 0.000000 0.000000 -0.798947 -15.255397 -0.501208 -18.623803 21.446353 18.093513 27.335506 9.170682 -0.199418 4.299405 2.510592 -5.042775 -5.632128 -0.009527 0.044488 0.000000 0.000000 0.000000 -0.183147 -14.337206 -0.968911 -5.807013 -3.581210 1.810639 20.101841 2.868391 1.415238 -7.117209 0.089913 -2.507326 -0.219800 -0.606452 1.624905 0.000000 0.000000 0.000000 -1.985983 -18.770509 -1.784754 2.916696 -0.525191 -0.017020 0.721428 -0.264922 3.176454 -0.250572 1.655199 -0.173076 0.000000 0.000000 0.000000 0.826930 -1.621480 2.713376 4.166618 -6.979016 -2.235502 5.714627 21.179945 -9.619223 0.000000 0.000000 0.000000 0.188269 -1.345397 2.909151 4.678244 6.679398 2.330818 5.631916 7.078414 -2.661428 -6.448388 -40.770683 -68.336405 -13.089807 -26.316758 -2.815142 0.000000 0.000000 0.000000 0.484017 -0.975833 3.341542 -1.719274 -1.603610 2.735838 -1.518620 3.979892 1.357231 7.070671 7.791266 78.298850 -6.203272 27.915852 5.147348 0.000000 0.000000 0.000000 
3.159717 94.198822 -5.053497 0.000000 0.000000 0.000000 -0.686878 -15.273879 -0.834108 -18.961283 22.195130 18.688661 27.572890 8.490144 -0.763348 3.101499 2.377083 -4.710358 -4.443782 -0.060937 -0.126815 0.000000 0.000000 0.000000 -0.068663 -14.682340 -1.180644 -7.375354 -3.554277 1.501366 18.612160 3.020090 2.117506 -5.365650 1.125140 -1.731826 -3.149539 -0.659072 1.344424 0.000000 0.000000 0.000000 -2.147490 -19.794455 -2.280251 3.924736 -0.803794 0.059313 1.111472 -0.456366 3.149703 0.514276 1.205412 0.022640 0.000000 0.000000 0.000000 1.418834 -1.624500 2.706274 3.329249 -6.541234 -1.929229 4.632052 21.125917 -9.495109 0.000000 0.000000 0.000000 0.537586 -1.342115 2.837824 4.938265 6.670305 2.913501 5.877523 5.985264 -0.639223 -4.466449 -40.787397 -68.558502 -11.144009 -24.978383 -2.487372 0.000000 0.000000 0.000000 0.868445 -1.046697 3.336530 -1.520380 -1.090178 2.575147 -1.437475 6.081923 0.368706 6.282665 8.772340 77.300980 -4.784912 26.121568 4.103468 0.000000 0.000000 0.000000 
3.510557 92.933151 -5.305016 0.000000 0.000000 0.000000 -0.822232 -16.571600 -1.868560 -20.479316 24.782040 21.025793 28.334874 6.974870 -1.616736 1.021101 2.237210 -5.792582 -4.222811 -0.090803 -0.308552 0.000000 0.000000 0.000000 -0.375143 -16.584917 -2.138342 -9.874944 -4.242507 0.856296 17.973062 3.608450 3.390141 -2.031362 3.477937 0.098190 -4.908222 -0.407989 0.414270 0.000000 0.000000 0.000000 -2.463247 -21.690437 -3.189147 5.522274 -1.335743 0.259478 1.717512 -0.773782 2.812489 0.757423 1.069975 -0.142332 0.000000 0.000000 0.000000 2.170106 -1.734667 2.436975 1.947222 -5.715243 -1.941667 2.024203 22.249401 -9.492422 0.000000 0.000000 0.000000 1.287390 -1.421295 2.339208 5.635551 6.169849 4.031608 5.814703 5.695406 1.724698 1.159429 -42.315303 -66.672618 -11.888965 -29.647560 -4.207512 0.000000 0.000000 0.000000 1.773329 -1.200808 2.956954 -1.166140 -0.418992 2.240517 -0.788205 6.726059 -0.680057 4.179641 11.650548 75.829655 -2.841365 24.831834 3.064552 0.000000 0.000000 0.000000 
3.773390 91.950134 -5.359844 0.000000 0.000000 0.000000 -1.086490 -19.279855 -3.272761 -23.205626 28.909373 25.058938 29.211715 5.088645 -2.691486 -0.910626 2.203775 -8.029532 -5.493157 -0.105612 -0.157536 0.000000 0.000000 0.000000 -0.767729 -19.744508 -3.614850 -12.709445 -5.407794 -0.086230 18.295135 4.407320 4.703222 1.358145 6.553650 2.574935 -4.991707 0.068693 -0.800252 0.000000 0.000000 0.000000 -2.562732 -24.213558 -4.356923 7.260238 -2.011350 0.506995 2.453896 -1.166674 2.276758 0.544306 1.121139 -0.440656 0.000000 0.000000 0.000000 3.070444 -1.951860 1.999926 0.297566 -4.541432 -2.194157 -1.455245 24.141532 -9.417745 0.000000 0.000000 0.000000 2.246022 -1.585648 1.590762 6.666322 5.733429 5.933236 5.545191 5.303925 3.412446 10.651893 -44.374055 -62.654848 -16.401451 -41.172647 -9.115633 0.000000 0.000000 0.000000 2.983719 -1.439016 2.336660 -0.712604 0.204594 1.883406 0.181539 5.651199 -1.595349 1.211134 15.133244 74.179789 -0.941176 25.594017 2.338617 0.000000 0.000000 0.000000 
3.930224 91.250267 -5.038891 0.000000 0.000000 0.000000 -1.391807 -23.149347 -4.761150 -26.909345 33.864939 30.341131 30.365498 3.351953 -3.726074 -2.095188 2.847505 -10.285229 -6.670795 -0.171537 0.084539 0.000000 0.000000 0.000000 -1.162826 -23.700027 -5.269041 -14.966051 -6.739463 -1.225896 19.364283 4.829763 5.357270 3.168220 8.786030 4.459347 -4.341859 0.518501 -1.686513 0.000000 0.000000 0.000000 -2.339189 -27.286754 -5.559120 8.738377 -2.688124 0.706773 3.244619 -1.604957 1.681123 0.191522 1.564206 -0.778180 0.000000 0.000000 0.000000 3.965958 -2.222962 1.534320 -1.091885 -3.195214 -2.386553 -4.923185 26.510201 -9.223663 0.000000 0.000000 0.000000 3.237359 -1.775667 0.819007 7.979901 5.737994 8.438925 4.942405 4.025234 4.360293 23.561757 -45.526356 -57.359505 -29.182127 -57.806077 -22.103110 0.000000 0.000000 0.000000 4.288292 -1.719136 1.647096 -0.145895 0.755337 1.571669 1.131404 3.563033 -2.440455 -1.871594 17.839001 72.447482 0.469295 29.872539 2.047846 0.000000 0.000000 0.000000 
